<svg id="Layer_1" data-name="Layer 1" xmlns="http://www.w3.org/2000/svg" xmlns:xlink="http://www.w3.org/1999/xlink" viewBox="0 0 800 800" width="200"><defs><style>.cls-1{fill:none;}.cls-2{fill:#ff006a;}.cls-3{fill:#eeebf7;}.cls-4{fill:#1d103a;}.cls-5{fill:#00ffce;}.cls-6{clip-path:url(#clip-path);}.cls-7{clip-path:url(#clip-path-2);}</style><clipPath id="clip-path"><ellipse id="SVGID" class="cls-1" cx="406.11" cy="488.93" rx="31.82" ry="24.13"/></clipPath><clipPath id="clip-path-2"><ellipse id="SVGID-2" data-name="SVGID" class="cls-1" cx="521.33" cy="488.94" rx="31.82" ry="24.13"/></clipPath></defs><title>inkipedia icon</title><path class="cls-2" d="M260.21,660.83l4.5-56.81A258.42,258.42,0,0,1,35.22,347.25c0-142.47,115.91-258.38,258.38-258.38a258,258,0,0,1,233.86,148.4l226.76,58.24L612.05,333.22q4.79,6.18,9,12.77a187.48,187.48,0,0,1,27.69,72.53l122.9,62.89L658.93,538.94l9.66,121.89L519.31,721.38l-.82-94.54a188.67,188.67,0,0,1-108.18,0l-.81,94.54Z"/><path class="cls-2" d="M727.69,481.38l-97.42-49.85,0-.43h0a166.86,166.86,0,0,0-55.56-108.68L675,295.82,513.13,254.26C476.9,168.82,392.25,108.89,293.59,108.89,162,108.89,55.24,215.6,55.24,347.25c0,129.18,102.78,234.36,231,238.23l-4.94,62.31,108.4,44,.81-94.26a166.88,166.88,0,0,0,147.72,0l.81,94.25,108.4-44-9.55-120.6Z"/><circle class="cls-3" cx="293.59" cy="347.25" r="238.36"/><circle class="cls-4" cx="293.59" cy="347.25" r="219.64"/><circle class="cls-5" cx="293.59" cy="347.25" r="193.69"/><path class="cls-4" d="M293.59,128c-120.9,0-219.25,98.36-219.25,219.26s98.35,219.26,219.25,219.26,219.26-98.36,219.26-219.26S414.49,128,293.59,128ZM100.12,362.37h77.81a394.44,394.44,0,0,0,8.94,72H120.23A192.59,192.59,0,0,1,100.12,362.37ZM306.19,240V155.24c18,5.84,35.4,23.9,49.2,51.51A232.78,232.78,0,0,1,368.76,240Zm69.4,25.2a370.4,370.4,0,0,1,8.61,72h-78v-72ZM281,155.24V240H218.43a232.78,232.78,0,0,1,13.37-33.21C245.6,179.14,263,161.08,281,155.24Zm0,109.92v72H203a371.16,371.16,0,0,1,8.62-72Zm-103.21,72h-78a192.82,192.82,0,0,1,18-72h68A400.68,400.68,0,0,0,177.79,337.18Zm25.35,25.19H281v72H212.78A364.33,364.33,0,0,1,203.14,362.37ZM281,459.58v79.67c-18-5.83-35.4-23.89-49.2-51.51a228.86,228.86,0,0,1-11.7-28.16Zm25.19,79.67V459.58h60.9a228.86,228.86,0,0,1-11.7,28.16C341.59,515.36,324.16,533.42,306.19,539.25Zm0-104.86v-72h77.86a365.07,365.07,0,0,1-9.64,72Zm103.07-72h77.81a192.59,192.59,0,0,1-20.11,72H400.32A394.44,394.44,0,0,0,409.26,362.37Zm.14-25.19a400.68,400.68,0,0,0-8-72h68a192.82,192.82,0,0,1,18,72ZM455.23,240H395.16c-8.9-30.59-21.54-56.5-36.84-75.67A195.14,195.14,0,0,1,455.23,240ZM228.87,164.29C213.57,183.46,200.93,209.37,192,240H132A195.14,195.14,0,0,1,228.87,164.29ZM135.43,459.58h58.12c8.79,28.4,20.87,52.52,35.32,70.62A195,195,0,0,1,135.43,459.58ZM358.32,530.2c14.45-18.1,26.53-42.22,35.32-70.62h58.12A195,195,0,0,1,358.32,530.2Z"/><path class="cls-3" d="M281.33,647.79,290.9,527l-89.78-45.94,97.36-49.68,0-.26.12-.12a166.91,166.91,0,0,1,56.05-109l-107-30.44L461.13,240.9,675,295.82l-100.3,26.6A166.86,166.86,0,0,1,630.22,431.1h0l0,.43,97.42,49.85-89.77,45.81,9.55,120.6-108.4,44-.81-94.25a166.88,166.88,0,0,1-147.72,0l-.81,94.26Z"/><polygon class="cls-4" points="238.03 481.11 350.9 423.51 350.9 538.87 238.03 481.11"/><polygon class="cls-3" points="272.3 481.14 333.9 449.71 333.9 512.67 272.3 481.14"/><polygon class="cls-4" points="690.77 481.36 577.9 538.96 577.9 423.6 690.77 481.36"/><polygon class="cls-3" points="656.5 481.32 594.9 512.75 594.9 449.8 656.5 481.32"/><path class="cls-4" d="M522,447.7c-20.34,0-37.84,9.93-45.74,24.2a13.72,13.72,0,0,1-12.6,7c-7.32-.39-10.95-6.69-11.18-7.09-7.92-14.22-25.39-24.11-45.69-24.11-27.75,0-50.24,18.46-50.24,41.24s22.49,41.24,50.24,41.24c20.3,0,37.77-9.89,45.69-24.11v0l.07-.15c.28-.51.56-1,.82-1.56a12.8,12.8,0,0,1,22.05,0c7.45,15.12,25.49,25.8,46.58,25.8,27.75,0,50.24-18.46,50.24-41.24S549.77,447.7,522,447.7Z"/><g class="cls-6"><path class="cls-3" d="M422.24,505.42A26,26,0,0,1,401,464.37c-15.63,1.91-27.56,12.17-27.56,24.56,0,13.74,14.68,24.88,32.8,24.88,11.25,0,21.18-4.3,27.09-10.85A26,26,0,0,1,422.24,505.42Z"/></g><g class="cls-7"><path class="cls-3" d="M537.45,505.43a26,26,0,0,1-21.28-41.05c-15.62,1.91-27.56,12.17-27.56,24.56,0,13.74,14.69,24.88,32.8,24.88,11.26,0,21.18-4.3,27.09-10.85A26,26,0,0,1,537.45,505.43Z"/></g><rect class="cls-4" x="432.67" y="538.87" width="63.51" height="12.84"/><path class="cls-4" d="M614.05,438.57l-.09-.09c-4.74-78.7-69.87-141.07-149.54-141.07s-144.79,62.35-149.55,141l-.11.12L299,636.85l74.11,30.06.86-99.4a149.48,149.48,0,0,0,180.79,0l.85,99.38,74.11-30.06ZM464.42,578.85a130.72,130.72,0,0,1-90.2-35.93l1.1-127.54,6.93,23.34h124l7.36-32.65,8.82,32.65h23.48l7.54-23.12L554.58,543A130.72,130.72,0,0,1,464.42,578.85Z"/><polygon class="cls-3" points="516.59 347.91 461.35 366.84 406.12 347.91 406.12 319.15 461.77 334.99 516.59 320.43 516.59 347.91"/><polygon class="cls-4" points="461.77 334.99 314.25 293.01 460.97 258.2 608.45 296.08 461.77 334.99"/><polygon class="cls-3" points="499.89 308.28 499.89 308.28 499.89 308.28 499.89 308.28 457.86 292.94 439.94 296.6 484.62 312.33 484.62 328.92 499.89 324.86 499.89 308.28 499.89 308.28"/><polygon class="cls-4" points="484.62 328.92 484.62 347.25 499.89 353.63 499.89 324.86 484.62 328.92"/></svg>